<svg width="45" height="45" viewBox="0 0 45 45" fill="none" xmlns="http://www.w3.org/2000/svg">
<rect x="0.5" y="0.5" width="44" height="44" rx="5.5" stroke="black"/>
<circle cx="22.5" cy="22.5" r="17" stroke="black"/>
<path d="M2 2L5 0.5H39.5L43 2L44.5 5V41L41.5 44L35.5 44.5H6L2.5 43L0.5 40L13.5 37.5L19.5 39.5L26.5 39L33.5 36L38 30L39.5 24.5V20.5L38 15L35.5 11L31.5 7.5L22.5 5L17 6.5L12.5 8.5L7 14.5L5.5 21L6 25.5L7 30L10 34L13.5 37.5L0.5 40V5L2 2Z" fill="black"/>
<rect x="22" y="7" width="1" height="5" rx="0.5" fill="black"/>
<rect x="22" y="33" width="1" height="5" rx="0.5" fill="black"/>
<rect x="7" y="23" width="1" height="5" rx="0.5" transform="rotate(-90 7 23)" fill="black"/>
<rect x="33" y="23" width="1" height="5" rx="0.5" transform="rotate(-90 33 23)" fill="black"/>
<path d="M31.6519 17.2783C31.5138 17.0392 31.5957 16.7334 31.8349 16.5953L33.5669 15.5953C33.8061 15.4573 34.1119 15.5392 34.2499 15.7783C34.388 16.0175 34.3061 16.3233 34.0669 16.4614L32.3349 17.4614C32.0957 17.5994 31.7899 17.5175 31.6519 17.2783Z" fill="black"/>
<path d="M27.7159 13.3382C27.4821 13.1912 27.4117 12.8826 27.5587 12.6488L28.623 10.9555C28.7699 10.7217 29.0786 10.6513 29.3124 10.7982C29.5462 10.9452 29.6166 11.2538 29.4696 11.4876L28.4053 13.1809C28.2583 13.4147 27.9497 13.4851 27.7159 13.3382Z" fill="black"/>
<path d="M31.6435 27.7594C31.7816 27.5202 32.0874 27.4383 32.3265 27.5764L34.0586 28.5764C34.2977 28.7144 34.3797 29.0202 34.2416 29.2594C34.1035 29.4985 33.7977 29.5804 33.5586 29.4424L31.8265 28.4424C31.5874 28.3043 31.5055 27.9985 31.6435 27.7594Z" fill="black"/>
<path d="M27.8013 31.5799C28.0405 31.4419 28.3462 31.5238 28.4843 31.763L29.4843 33.495C29.6224 33.7341 29.5405 34.0399 29.3013 34.178C29.0622 34.3161 28.7564 34.2341 28.6183 33.995L27.6183 32.263C27.4802 32.0238 27.5622 31.718 27.8013 31.5799Z" fill="black"/>
<path d="M17.2603 31.6021C17.4995 31.7401 17.5814 32.0459 17.4434 32.2851L16.4434 34.0171C16.3053 34.2563 15.9995 34.3382 15.7603 34.2001C15.5212 34.0621 15.4393 33.7563 15.5773 33.5171L16.5773 31.7851C16.7154 31.5459 17.0212 31.464 17.2603 31.6021Z" fill="black"/>
<path d="M13.4019 27.744C13.5399 27.9831 13.458 28.2889 13.2188 28.427L11.4868 29.427C11.2476 29.5651 10.9419 29.4831 10.8038 29.244C10.6657 29.0048 10.7476 28.699 10.9868 28.561L12.7188 27.561C12.958 27.4229 13.2638 27.5048 13.4019 27.744Z" fill="black"/>
<path d="M13.395 17.2563C13.2569 17.4955 12.9512 17.5774 12.712 17.4393L10.98 16.4393C10.7408 16.3013 10.6589 15.9955 10.7969 15.7563C10.935 15.5172 11.2408 15.4352 11.48 15.5733L13.212 16.5733C13.4512 16.7114 13.5331 17.0172 13.395 17.2563Z" fill="black"/>
<path d="M17.2323 13.4119C16.9929 13.5495 16.6872 13.4671 16.5496 13.2277L15.5526 11.4939C15.415 11.2545 15.4975 10.9488 15.7369 10.8112C15.9762 10.6735 16.2819 10.756 16.4195 10.9954L17.4165 12.7292C17.5541 12.9686 17.4717 13.2742 17.2323 13.4119Z" fill="black"/>
<path d="M22 22H28.5C28.7761 22 29 22.2239 29 22.5C29 22.7761 28.7761 23 28.5 23H22V22Z" fill="black"/>
<path d="M22 14.4545C22 14.2035 22.2035 14 22.4545 14C22.7558 14 23 14.2442 23 14.5455V22H22V14.4545Z" fill="black"/>
</svg>
