<svg width="29" height="42" viewBox="0 0 29 42" fill="none" xmlns="http://www.w3.org/2000/svg">
<path d="M0 0H23L26 3L29 6V42H0V0Z" fill="white"/>
<rect x="2" y="11" width="25" height="1" fill="#847C7C"/>
<rect x="2" y="17" width="25" height="1" fill="#847C7C"/>
<rect x="2" y="14" width="25" height="1" fill="#847C7C"/>
<rect x="2" y="23" width="25" height="1" fill="#847C7C"/>
<rect x="2" y="29" width="25" height="1" fill="#847C7C"/>
<rect x="2" y="26" width="25" height="1" fill="#847C7C"/>
<rect x="2" y="20" width="25" height="1" fill="#847C7C"/>
<rect x="2" y="35" width="25" height="1" fill="#847C7C"/>
<rect x="2" y="38" width="25" height="1" fill="#847C7C"/>
<rect x="2" y="32" width="25" height="1" fill="#847C7C"/>
<path d="M22.5 0H23V6L22.5 6.5V0Z" fill="url(#paint0_linear_802_306)"/>
<path d="M23 0L26 3L29 6H23V0Z" fill="#E6DDDD"/>
<rect x="2" y="2" width="20" height="1" fill="#847C7C"/>
<rect x="2" y="5" width="20" height="1" fill="#847C7C"/>
<rect x="2" y="8" width="25" height="1" fill="#847C7C"/>
<path d="M28.9992 6.50537L29 6.00537L23 6.00537L22.4771 6.49474L28.9992 6.50537Z" fill="url(#paint1_linear_802_306)"/>
<defs>
<linearGradient id="paint0_linear_802_306" x1="22.5" y1="3" x2="23" y2="3" gradientUnits="userSpaceOnUse">
<stop offset="0.192708" stop-opacity="0"/>
<stop offset="0.552083" stop-opacity="0"/>
<stop offset="0.552183"/>
<stop offset="1"/>
</linearGradient>
<linearGradient id="paint1_linear_802_306" x1="26.2654" y1="6.50039" x2="26.2662" y2="6.00039" gradientUnits="userSpaceOnUse">
<stop offset="0.192708" stop-opacity="0"/>
<stop offset="0.552083" stop-opacity="0"/>
<stop offset="0.552183"/>
<stop offset="1"/>
</linearGradient>
</defs>
</svg>
