<svg width="102" height="39" viewBox="0 0 102 39" fill="none" xmlns="http://www.w3.org/2000/svg">
<path d="M0 10C0 4.47715 4.47715 0 10 0H92C97.5229 0 102 4.47715 102 10V39H0V10Z" fill="black"/>
<path d="M53.1213 6.87868C51.9497 5.70711 50.0503 5.70711 48.8787 6.87868L29.7868 25.9706C28.6152 27.1421 28.6152 29.0416 29.7868 30.2132C30.9584 31.3848 32.8579 31.3848 34.0294 30.2132L51 13.2426L67.9706 30.2132C69.1421 31.3848 71.0416 31.3848 72.2132 30.2132C73.3848 29.0416 73.3848 27.1421 72.2132 25.9706L53.1213 6.87868ZM54 10L54 9L48 9L48 10L54 10Z" fill="white"/>
</svg>
