<svg width="80" height="80" viewBox="0 0 80 80" fill="none" xmlns="http://www.w3.org/2000/svg">
<circle cx="40" cy="40" r="40" fill="black"/>
<path d="M20.7808 35.6261C20.2982 36.2994 20.4528 37.2365 21.1261 37.7191C21.7995 38.2018 22.7365 38.0472 23.2192 37.3738L20.7808 35.6261ZM41.5 22.5L41.5 21L41.5 22.5ZM23.4956 41.4828C22.6816 41.3287 21.8968 41.8638 21.7428 42.6777L19.2329 55.9424C19.0788 56.7563 19.6138 57.5411 20.4278 57.6951C21.2418 57.8491 22.0265 57.3141 22.1806 56.5001L24.4116 44.7094L36.2024 46.9404C37.0164 47.0944 37.8011 46.5594 37.9551 45.7455C38.1092 44.9315 37.5742 44.1468 36.7602 43.9927L23.4956 41.4828ZM22 36.5C23.2192 37.3738 23.219 37.374 23.2189 37.3742C23.2189 37.3742 23.2188 37.3743 23.2189 37.3743C23.2189 37.3742 23.2191 37.3739 23.2195 37.3734C23.2202 37.3724 23.2215 37.3706 23.2234 37.368C23.2272 37.3627 23.2334 37.3541 23.2419 37.3424C23.2591 37.3189 23.2856 37.2826 23.3212 37.2345C23.3924 37.1382 23.4998 36.9944 23.641 36.8099C23.9234 36.4407 24.3401 35.9094 24.8704 35.2701C25.9328 33.9892 27.4418 32.2862 29.2325 30.5886C31.028 28.8864 33.0749 27.2201 35.2103 25.9863C37.3556 24.7469 39.4938 24 41.5 24L41.5 21C38.7735 21 36.1079 22.0031 33.7096 23.3887C31.3014 24.7799 29.0649 26.6136 27.1685 28.4114C25.2674 30.2137 23.6762 32.0107 22.5613 33.3549C22.0029 34.0281 21.5617 34.5905 21.2583 34.987C21.1066 35.1853 20.9893 35.3423 20.9088 35.451C20.8686 35.5054 20.8376 35.5478 20.8162 35.5772C20.8055 35.592 20.7971 35.6035 20.7912 35.6117C20.7883 35.6158 20.7859 35.619 20.7842 35.6214C20.7833 35.6226 20.7826 35.6236 20.7821 35.6244C20.7818 35.6248 20.7815 35.6252 20.7813 35.6254C20.7811 35.6258 20.7808 35.6261 22 36.5ZM41.5 24C49.8825 24 57.5 30.5247 57.5 38H60.5C60.5 28.4753 51.1175 21 41.5 21L41.5 24ZM57.5 38C57.5 43.1048 55.9114 47.6166 53.1501 50.8281C50.4068 54.0186 46.4476 56 41.5 56V59C47.3191 59 52.1099 56.6394 55.4249 52.7839C58.7219 48.9494 60.5 43.7112 60.5 38H57.5ZM41.5 56C39.8226 56 37.9242 55.2605 35.9281 53.9684C33.9521 52.6893 32.0167 50.9578 30.2973 49.1842C28.5836 47.4166 27.1188 45.6429 26.0808 44.3082C25.5627 43.642 25.1532 43.0881 24.8747 42.7028C24.7355 42.5102 24.6291 42.3599 24.5584 42.259C24.523 42.2085 24.4966 42.1704 24.4794 42.1456C24.4708 42.1331 24.4645 42.124 24.4606 42.1183C24.4587 42.1155 24.4573 42.1135 24.4565 42.1124C24.4562 42.1118 24.4559 42.1115 24.4558 42.1114C24.4558 42.1113 24.4558 42.1114 24.4558 42.1113C24.4559 42.1115 24.456 42.1117 23.2167 42.9566C21.9773 43.8016 21.9775 43.8019 21.9777 43.8022C21.9779 43.8024 21.9781 43.8028 21.9784 43.8032C21.9789 43.804 21.9796 43.8049 21.9804 43.8061C21.9821 43.8086 21.9843 43.8118 21.9872 43.816C21.9928 43.8243 22.0009 43.836 22.0114 43.8511C22.0322 43.8813 22.0625 43.9249 22.1018 43.9809C22.1804 44.093 22.2952 44.2552 22.4434 44.4603C22.7398 44.8703 23.1703 45.4526 23.7126 46.1499C24.7952 47.542 26.3322 49.4042 28.1433 51.2724C29.9488 53.1347 32.0612 55.039 34.2979 56.4868C36.5143 57.9216 38.9934 59 41.5 59V56Z" fill="white"/>
</svg>
